#!OML:ASF F:\VICON\USERDATA\INSTALL\rory3\rory3.ASF
:FULLY-SPECIFIED
:DEGREES
29
root -0.4692358546994129 17.891819033742685 -5.887555742475193 2.1303136549964448 -1.2041220477809513 0.6844766719537099
lfemur -8.263854267700014 -1.96846551999428 -28.85935905966093
ltibia 41.47602307559433
lfoot -7.119768138266183 -9.652407655659518
ltoes -12.420043865504333
rfemur -32.509014999149926 0.32678581013492125 23.36303940180316
rtibia 123.3010553095387
rfoot 20.39651494230015 -11.234776780913938
rtoes 7.14139451486642
lowerback 15.70543864315147 0.5947262444310899 -0.5561895521863494
upperback 0.1623106900943394 1.2825465837189765 -0.26460692329441904
thorax -9.18409299688016 1.099605386507774 -0.5722103272455875
lowerneck -18.03175735500863 -4.241842486994979 -2.444137441092364
upperneck 13.223218239860671 -6.372552614595741 1.9182393906808637
head 7.257800459696718 -2.9209262333906336 0.17825708065726326
lclavicle -6.513796359688099e-16 -4.873917530409157e-15
lhumerus -52.373371343112304 -12.714305655447655 96.9916529973147
lradius 122.41977123484989
lwrist 27.377231563807495
lhand -32.20156734195633 0.3909827661540481
lfingers 7.125019999999998
lthumb -5.714265510978244 30.15930382307337
rclavicle -6.489011819165454e-16 -4.861512354563301e-15
rhumerus -55.716993907040326 5.2964510715220205 -90.45281532999718
rradius 114.46022597713348
rwrist -14.785545910493036
rhand -18.749596900356277 37.58880049993338
rfingers 7.125019999999998
rthumb 7.294312554723842 6.974935081287403
30
root -0.5010631478573753 18.06169025764156 -4.954551150761276 2.2071370057069193 0.2637451058862974 0.5375950157077212
lfemur -4.5347761231148365 -1.1997161022537175 -29.434036289275063
ltibia 41.98815043594523
lfoot -6.109951540746977 -9.251357049518628
ltoes -10.693756567187311
rfemur -33.39323795908501 1.7159662953799102 22.332108031571686
rtibia 122.08042043958442
rfoot 23.30574366268066 -14.08414795382242
rtoes 4.117213941362638
lowerback 15.824308509141606 0.3385657700334045 -0.9038349934205501
upperback 0.10255542132137352 0.7872348225635717 -0.20058067934321078
thorax -9.429678712206101 0.9718183580402335 -0.22002357293163355
lowerneck -18.586358640584365 -3.90106829623943 -2.5352359088635086
upperneck 13.49439693959989 -5.980403416111746 1.7952268128677222
head 7.412716711133861 -2.7574072363331648 0.2000166580844598
lclavicle -6.513777997485813e-16 -4.873997292866081e-15
lhumerus -47.60506272293829 -14.737193107548803 97.12023417297125
lradius 122.42245571544633
lwrist 28.083533150540084
lhand -32.24270017980384 0.06645043967528275
lfingers 7.125019999999998
lthumb -5.6672387128024635 29.92453372856409
rclavicle -6.488904745579327e-16 -4.861505456051028e-15
rhumerus -57.87678310394199 4.250414945699441 -88.69454831142784
rradius 114.9301785681854
rwrist -15.369084326488005
rhand -18.924209594963884 37.97169738556564
rfingers 7.125019999999998
rthumb 7.157167344478257 7.722607301420059
31
root -0.5410530478527424 18.202647727457745 -4.179253203053497 2.2998429877565174 1.9486690590833122 0.5178219328698634
lfemur -1.0868281611446946 -0.6973599799291414 -29.705960871630104
ltibia 42.04870946465433
lfoot -5.221698593957861 -9.628176746396257
ltoes -10.118258581873429
rfemur -33.297655391081456 4.727510239975324 20.875376714673585
rtibia 116.43580146106997
rfoot 23.190759860712546 -14.15621163099824
rtoes 0.1810386389866223
lowerback 16.039442710550475 0.13733482505403483 -1.4572797894166172
upperback -0.050646660468728455 0.2492688885763914 -0.08637861669937075
thorax -9.617916916507024 0.8277283951882259 0.22190379985918635
lowerneck -19.250876567467984 -3.5517606506048693 -2.631819806585831
upperneck 13.866841701053279 -5.6428103411979835 1.671330780099275
head 7.507809866264245 -2.583482070429761 0.20847683188813282
lclavicle -6.514126074975644e-16 -4.873977489377842e-15
lhumerus -42.56172796896296 -16.41042984975597 96.90895996820892
lradius 121.77408250050212
lwrist 28.69128385610971
lhand -31.990739893107765 0.21337996324527506
lfingers 7.125019999999998
lthumb -5.401408904245155 30.084196516471838
rclavicle -6.488663983541905e-16 -4.86148790677404e-15
rhumerus -59.446185218488694 3.7360736777489763 -87.60147397573965
rradius 115.54827639284636
rwrist -15.59475538446113
rhand -18.599605036475058 38.259006774230556
rfingers 7.125019999999998
rthumb 7.68094653348267 8.088834990397428
32
root -0.5943645229321701 18.307816770566458 -3.718324197073759 2.453423842841169 3.4408673729770864 0.41630205763154415
lfemur 1.625915517599669 -0.4082039198610171 -29.749766884347977
ltibia 41.46911624110607
lfoot -2.7850421076319463 -10.337248079587182
ltoes -9.49963646611658
rfemur -31.930993591420947 8.055928685767928 19.8258326193786
rtibia 106.23954804843197
rfoot 21.26367592833933 -11.572819791961406
rtoes -5.027621119111151
lowerback 15.838872606099104 -0.017775481609934418 -2.0069265794091735
upperback -0.16396810343038692 -0.23606710294374122 -0.0834582061111302
thorax -9.309328154258376 0.6609301903682603 0.7153706846255641
lowerneck -19.839574966926058 -3.1731022983947788 -2.694849711315559
upperneck 13.897727863658003 -5.272204669503838 1.5362595448713348
head 7.536512180587548 -2.3821863289016925 0.23853195410889666
lclavicle -6.514033148402017e-16 -4.87394515493083e-15
lhumerus -37.41034600076773 -17.59226472972217 96.5011027295443
lradius 120.7260855147299
lwrist 29.497357682461814
lhand -31.66904381823689 0.6881105206658287
lfingers 7.125019999999998
lthumb -5.198299275900945 30.43299025715349
rclavicle -6.488283642038876e-16 -4.861461262822498e-15
rhumerus -59.77850968025325 4.047393975445821 -87.81547499031014
rradius 115.74593610862843
rwrist -15.476362756685727
rhand -18.66397983182798 38.40271974691381
rfingers 7.125019999999998
rthumb 7.7881856129457585 8.187068564479892
33
root -0.6434848318118623 18.47119361689594 -2.8749778583861527 2.6618367677962307 4.55264318655038 0.17135569432026654
lfemur 3.784511872411013 -0.7725668028998914 -29.661449827380224
ltibia 40.239461330500646
lfoot 2.0835509234058205 -11.67943686724178
ltoes -8.702946269492283
rfemur -30.45845488823703 9.032301381947113 19.92852443498235
rtibia 91.20009762022183
rfoot 20.59138244279769 -9.269597919647712
rtoes -10.92759775016992
lowerback 15.281657766550639 -0.14668404682243563 -2.296790363105312
upperback -0.11895140482572786 -0.5909241154349704 0.12918444319875055
thorax -8.913938125078769 0.48098584498182523 1.1030474966321187
lowerneck -20.697381878150367 -2.8806949873947127 -2.7203902047342754
upperneck 13.860197504433998 -4.97692334321472 1.4728256114728981
head 7.591491680923927 -2.2756637948034633 0.24060669117010552
lclavicle -6.513832200289758e-16 -4.873960690513958e-15
lhumerus -33.471816223926666 -18.491299278468972 96.01699125120997
lradius 119.4714422682748
lwrist 30.930914002801007
lhand -31.189179691338342 1.2487926287831284
lfingers 7.125019999999998
lthumb -4.791702622394579 30.901742725997817
rclavicle -6.488376072598895e-16 -4.861467427944442e-15
rhumerus -59.78873154678691 4.519057628193086 -88.52249243214472
rradius 114.87025243612722
rwrist -14.824175747039586
rhand -18.241287581389095 36.77020079372997
rfingers 7.125019999999998
rthumb 8.205477109442754 6.0358995389041725
